<svg xmlns="http://www.w3.org/2000/svg" width="549" height="124" fill="none"><path fill="#E60017" d="M142.566 67.887c-2.24 1.134-7.208 2.646-13.539 2.646-14.22 0-23.473-9.355-23.473-23.339 0-14.079 9.934-24.284 25.324-24.284 5.065 0 9.545 1.23 11.882 2.363l-1.948 6.425c-2.045-1.133-5.26-2.173-9.934-2.173-10.812 0-16.656 7.748-16.656 17.292 0 10.582 7.013 17.102 16.364 17.102 4.87 0 8.084-1.229 10.518-2.268l1.462 6.236ZM157.466 23.855 167.79 50.88c1.072 3.024 2.241 6.615 3.02 9.355h.195c.877-2.74 1.85-6.236 3.02-9.544l9.349-26.835h9.06l-12.857 32.599c-6.136 15.685-10.326 23.717-16.168 28.63-4.19 3.59-8.378 5.007-10.52 5.386l-2.143-6.992c2.143-.661 4.968-1.985 7.5-4.064 2.337-1.795 5.259-5.007 7.207-9.26.389-.85.682-1.51.682-1.984 0-.472-.194-1.133-.584-2.172l-17.436-42.143h9.351ZM208.698 51.257c0 1.04.194 2.079.389 3.024 1.656 5.764 6.624 9.732 12.857 9.732 8.96 0 14.318-7.087 14.318-17.575 0-9.165-4.871-17.008-14.026-17.008-5.844 0-11.298 3.875-13.052 10.204-.194.946-.486 2.08-.486 3.403v8.22Zm-8.864 18.33c.194-3.117.389-7.747.389-11.81V2.502h8.475v28.724h.194c3.02-5.102 8.475-8.41 16.071-8.41 11.688 0 19.968 9.449 19.869 23.338 0 16.347-10.616 24.472-21.136 24.472-6.817 0-12.27-2.55-15.778-8.597h-.292l-.39 7.559h-7.402ZM285.545 42.281c.097-5.292-2.24-13.512-11.884-13.512-8.668 0-12.467 7.748-13.148 13.512h25.032Zm-25.131 5.952c.196 11.246 7.599 15.874 16.17 15.874 6.136 0 9.837-1.04 13.052-2.362l1.46 5.954c-3.019 1.322-8.18 2.834-15.68 2.834-14.514 0-23.182-9.26-23.182-23.056 0-13.794 8.376-24.661 22.11-24.661 15.389 0 19.48 13.133 19.48 21.544 0 1.7-.195 3.024-.292 3.873h-33.118ZM304.439 38.124c0-5.386-.098-10.016-.39-14.268h7.5l.292 8.976h.39c2.142-6.142 7.305-10.015 13.052-10.015.973 0 1.656.093 2.434.283v7.842c-.876-.189-1.752-.282-2.922-.282-6.038 0-10.324 4.44-11.492 10.677-.195 1.132-.39 2.456-.39 3.873v24.378h-8.474V38.124ZM335.119 61.083c2.533 1.607 7.013 3.308 11.299 3.308 6.233 0 9.156-3.024 9.156-6.804 0-3.968-2.436-6.14-8.767-8.409-8.473-2.928-12.468-7.464-12.468-12.944 0-7.37 6.137-13.417 16.267-13.417 4.773 0 8.961 1.322 11.59 2.834l-2.142 6.047c-1.851-1.135-5.26-2.645-9.643-2.645-5.064 0-7.889 2.834-7.889 6.236 0 3.78 2.825 5.48 8.961 7.748 8.181 3.024 12.369 6.992 12.369 13.794 0 8.032-6.428 13.702-17.629 13.702-5.163 0-9.935-1.228-13.247-3.118l2.143-6.332ZM383.331 50.974c0 1.228.195 2.362.39 3.401 1.558 5.764 6.72 9.732 12.857 9.732 9.059 0 14.317-7.18 14.317-17.67 0-9.165-4.966-17.007-14.025-17.007-5.844 0-11.299 4.064-12.953 10.3-.294 1.038-.586 2.266-.586 3.401v7.843Zm-8.474-12.188c0-5.86-.195-10.584-.39-14.93h7.695l.389 7.842h.195c3.508-5.575 9.06-8.882 16.755-8.882 11.394 0 19.965 9.355 19.965 23.244 0 16.442-10.324 24.567-21.427 24.567-6.233 0-11.689-2.645-14.513-7.18h-.195v24.85h-8.474V38.785ZM455.114 46.25c-9.351-.19-19.967 1.417-19.967 10.298 0 5.386 3.702 7.938 8.083 7.938 6.137 0 10.033-3.78 11.397-7.654.292-.85.487-1.796.487-2.645V46.25Zm1.265 23.338-.681-5.764h-.292c-2.629 3.591-7.695 6.803-14.415 6.803-9.546 0-14.416-6.52-14.416-13.133 0-11.056 10.131-17.103 28.344-17.008v-.946c0-3.778-1.072-10.582-10.714-10.582-4.383 0-8.96 1.322-12.272 3.402l-1.948-5.481c3.896-2.456 9.545-4.063 15.486-4.063 14.415 0 17.922 9.544 17.922 18.708v17.103c0 3.97.194 7.843.78 10.961h-7.794ZM477.222 38.124c0-5.386-.097-10.016-.389-14.268h7.5l.292 8.976h.389c2.143-6.142 7.306-10.015 13.052-10.015.974 0 1.656.093 2.436.283v7.842c-.877-.189-1.754-.282-2.922-.282-6.04 0-10.326 4.44-11.494 10.677-.194 1.132-.389 2.456-.389 3.873v24.378h-8.475V38.124ZM517.936 44.832h.194c1.169-1.606 2.825-3.59 4.189-5.197l13.831-15.78h10.322L528.26 42.66l20.746 26.93h-10.423l-16.264-21.922-4.383 4.724v17.197h-8.474V2.502h8.474v42.33Z"/><path fill="#1A1004" d="M333.152 106.396c0-1.486-.031-2.706-.119-3.894h2.289l.119 2.319h.088c.804-1.368 2.141-2.645 4.519-2.645 1.961 0 3.448 1.188 4.073 2.882h.059a5.93 5.93 0 0 1 1.605-1.873c.861-.653 1.813-1.009 3.18-1.009 1.903 0 4.727 1.248 4.727 6.242v8.471h-2.556v-8.145c0-2.764-1.011-4.428-3.122-4.428-1.486 0-2.645 1.1-3.092 2.377a4.341 4.341 0 0 0-.208 1.308v8.888h-2.556v-8.62c0-2.289-1.01-3.953-3.002-3.953-1.635 0-2.823 1.308-3.24 2.616-.148.385-.208.832-.208 1.277v8.68h-2.556v-10.493ZM365.519 109.547c-2.854-.06-6.094.445-6.094 3.24 0 1.695 1.13 2.496 2.467 2.496 1.873 0 3.061-1.188 3.479-2.407.088-.266.148-.565.148-.833v-2.496Zm.386 7.343-.208-1.814h-.089c-.803 1.13-2.348 2.14-4.4 2.14-2.912 0-4.399-2.052-4.399-4.132 0-3.477 3.092-5.38 8.65-5.35v-.298c0-1.189-.327-3.329-3.27-3.329-1.337 0-2.734.416-3.745 1.071l-.595-1.724c1.19-.774 2.914-1.279 4.727-1.279 4.399 0 5.469 3.003 5.469 5.885v5.38c0 1.25.059 2.468.239 3.45h-2.379ZM374.85 109.101h.06c.356-.505.861-1.129 1.277-1.634l4.222-4.964h3.15l-5.558 5.914 6.332 8.472h-3.18l-4.966-6.896-1.337 1.486v5.41h-2.585V95.784h2.585V109.1ZM386.708 102.503h2.616v14.386h-2.616v-14.386Zm2.913-4.043c.028.892-.625 1.604-1.665 1.604-.921 0-1.576-.712-1.576-1.604 0-.923.684-1.636 1.635-1.636.981 0 1.606.713 1.606 1.636ZM393.662 106.396c0-1.486-.03-2.706-.118-3.894h2.318l.148 2.378h.06c.714-1.367 2.378-2.704 4.756-2.704 1.991 0 5.083 1.188 5.083 6.122v8.591h-2.616v-8.293c0-2.319-.863-4.251-3.329-4.251-1.724 0-3.062 1.219-3.507 2.676-.119.325-.179.772-.179 1.217v8.651h-2.616v-10.493ZM419.848 108.179c0-.445-.031-.832-.15-1.189-.474-1.516-1.753-2.764-3.656-2.764-2.497 0-4.28 2.111-4.28 5.44 0 2.824 1.427 5.172 4.251 5.172 1.605 0 3.061-1.011 3.627-2.675a4.56 4.56 0 0 0 .208-1.397v-2.587Zm2.705-5.677c-.06 1.04-.12 2.2-.12 3.953v8.354c0 3.3-.653 5.321-2.049 6.569-1.398 1.308-3.42 1.724-5.234 1.724-1.724 0-3.626-.416-4.785-1.189l.653-1.992c.952.594 2.439 1.129 4.223 1.129 2.675 0 4.637-1.397 4.637-5.023v-1.605h-.061c-.801 1.337-2.348 2.408-4.576 2.408-3.568 0-6.124-3.032-6.124-7.015 0-4.876 3.18-7.64 6.48-7.64 2.497 0 3.864 1.307 4.488 2.498h.06l.119-2.171h2.289ZM433.072 95.784h2.616v21.105h-2.616V95.784ZM440.085 102.503h2.616v14.386h-2.616v-14.386Zm2.914-4.043c.029.892-.624 1.604-1.666 1.604-.921 0-1.574-.712-1.574-1.604 0-.923.682-1.636 1.634-1.636.982 0 1.606.713 1.606 1.636ZM447.308 116.889v-12.396h-2.023v-1.99h2.023v-.684c0-2.022.445-3.864 1.664-5.024.981-.951 2.289-1.338 3.508-1.338.921 0 1.724.208 2.229.416l-.357 2.022c-.386-.18-.922-.327-1.664-.327-2.23 0-2.795 1.961-2.795 4.161v.774h3.479v1.99h-3.479v12.396h-2.585ZM464.458 108.298c.029-1.664-.684-4.251-3.627-4.251-2.645 0-3.805 2.438-4.013 4.251h7.64Zm-7.669 1.873c.06 3.538 2.318 4.994 4.934 4.994 1.872 0 3.003-.327 3.983-.743l.447 1.872c-.922.417-2.498.892-4.786.892-4.43 0-7.076-2.913-7.076-7.252 0-4.341 2.558-7.759 6.748-7.759 4.698 0 5.946 4.132 5.946 6.778 0 .534-.06.95-.09 1.218h-10.106ZM485.648 108.298c.029-1.664-.684-4.251-3.627-4.251-2.645 0-3.805 2.438-4.013 4.251h7.64Zm-7.669 1.873c.06 3.538 2.318 4.994 4.934 4.994 1.872 0 3.003-.327 3.983-.743l.447 1.872c-.922.417-2.498.892-4.786.892-4.43 0-7.076-2.913-7.076-7.252 0-4.341 2.558-7.759 6.748-7.759 4.698 0 5.944 4.132 5.944 6.778 0 .534-.058.95-.089 1.218h-10.105ZM498.992 109.547c-2.853-.06-6.093.445-6.093 3.24 0 1.695 1.129 2.496 2.468 2.496 1.871 0 3.06-1.188 3.477-2.407.09-.266.148-.565.148-.833v-2.496Zm.388 7.343-.209-1.814h-.089c-.803 1.13-2.348 2.14-4.399 2.14-2.913 0-4.4-2.052-4.4-4.132 0-3.477 3.092-5.38 8.651-5.35v-.298c0-1.189-.327-3.329-3.271-3.329-1.339 0-2.735.416-3.745 1.071l-.594-1.724c1.188-.774 2.914-1.279 4.726-1.279 4.398 0 5.47 3.003 5.47 5.885v5.38c0 1.25.058 2.468.238 3.45h-2.378ZM505.38 114.214c.773.505 2.14 1.041 3.448 1.041 1.902 0 2.794-.952 2.794-2.14 0-1.249-.744-1.933-2.676-2.647-2.585-.921-3.804-2.348-3.804-4.073 0-2.317 1.874-4.22 4.963-4.22 1.457 0 2.736.416 3.539.892l-.655 1.903a5.578 5.578 0 0 0-2.941-.834c-1.547 0-2.41.892-2.41 1.963 0 1.188.863 1.724 2.736 2.437 2.496.952 3.776 2.2 3.776 4.34 0 2.527-1.962 4.31-5.382 4.31-1.575 0-3.032-.387-4.043-.98l.655-1.992ZM517.507 102.503h2.617v14.386h-2.617v-14.386Zm2.913-4.043c.031.892-.623 1.604-1.663 1.604-.922 0-1.577-.712-1.577-1.604 0-.923.685-1.636 1.636-1.636.981 0 1.604.713 1.604 1.636ZM533.587 108.298c.03-1.664-.684-4.251-3.625-4.251-2.647 0-3.805 2.438-4.013 4.251h7.638Zm-7.67 1.873c.061 3.538 2.32 4.994 4.937 4.994 1.871 0 3-.327 3.981-.743l.447 1.872c-.921.417-2.497.892-4.787.892-4.428 0-7.074-2.913-7.074-7.252 0-4.341 2.557-7.759 6.748-7.759 4.696 0 5.946 4.132 5.946 6.778 0 .534-.061.95-.09 1.218h-10.108ZM539.351 106.99c0-1.694-.029-3.15-.119-4.488h2.29l.089 2.823h.12c.652-1.931 2.229-3.151 3.981-3.151.299 0 .507.031.744.091v2.467a3.904 3.904 0 0 0-.892-.09c-1.844 0-3.15 1.398-3.506 3.359-.06.357-.119.773-.119 1.219v7.669h-2.588v-9.899Z"/><path fill="#E60017" d="M83.5 73.528 61.617 86.162l-14.012-8.09-3.6-2.078-4.272-2.466V48.259l4.272-2.466L47.63 43.7l13.987-8.075 4.281 2.472 3.6 2.078L83.5 48.26v25.268ZM26.392 86.162 4.51 73.527V48.26l13.97-8.067 3.651-2.108 4.262-2.46 13.961 8.06-4.272 2.466v29.456l4.297 2.48-13.986 8.075ZM22.13 17.618 44.014 4.984l21.884 12.634V33.91l-4.306-2.486L43.98 41.591 26.368 31.424l-4.236 2.446V17.618Zm47.367 18.37V15.51L43.99.784 18.48 15.51v20.467L.86 46.152v29.454l25.508 14.728L43.98 80.166l17.612 10.168L87.1 75.606V46.152L69.498 35.989Z"/></svg>