<svg xmlns="http://www.w3.org/2000/svg" width="48" height="48" fill="none"><path fill="#86EFAC" d="M24.788 3.724 30.076.116a.658.658 0 0 1 .962.258l2.644 5.5a1.397 1.397 0 0 0 1.366.789l6.081-.46c.38-.029.697.287.668.667l-.46 6.082a1.396 1.396 0 0 0 .79 1.366l5.5 2.644c.364.175.484.63.26.962l-3.609 5.288a1.397 1.397 0 0 0 0 1.576l3.608 5.288a.657.657 0 0 1-.26.962l-5.5 2.644a1.397 1.397 0 0 0-.789 1.366l.46 6.081a.621.621 0 0 1-.667.668l-6.082-.46a1.396 1.396 0 0 0-1.366.79l-2.644 5.5a.657.657 0 0 1-.962.26l-5.288-3.609a1.397 1.397 0 0 0-1.576 0l-5.288 3.608a.657.657 0 0 1-.962-.26l-2.644-5.5a1.397 1.397 0 0 0-1.366-.789l-6.082.46a.621.621 0 0 1-.667-.667l.46-6.082a1.397 1.397 0 0 0-.79-1.366l-5.5-2.644a.657.657 0 0 1-.26-.962l3.609-5.288a1.397 1.397 0 0 0 0-1.576L.114 17.924a.657.657 0 0 1 .26-.962l5.5-2.644a1.397 1.397 0 0 0 .789-1.366l-.46-6.082a.621.621 0 0 1 .667-.667l6.082.46a1.397 1.397 0 0 0 1.366-.79l2.644-5.5a.657.657 0 0 1 .962-.26l5.288 3.609a1.397 1.397 0 0 0 1.576 0v.002Z"/><path fill="#15803D" d="m13.473 31.15-2.259-8.43 3.326-.89c.64-.172 1.217-.196 1.733-.072.514.12.947.365 1.299.733.353.364.605.826.755 1.385.15.56.161 1.086.035 1.58-.127.492-.387.92-.782 1.28-.391.362-.911.629-1.559.802l-2.12.568-.382-1.428 1.832-.49c.343-.093.61-.227.8-.405.193-.181.316-.392.369-.633a1.616 1.616 0 0 0-.029-.782 1.574 1.574 0 0 0-.365-.687 1.167 1.167 0 0 0-.633-.355c-.257-.058-.558-.04-.904.052l-1.202.322 1.868 6.973-1.782.477Zm9.137-2.32a2.728 2.728 0 0 1-1.135.08 1.798 1.798 0 0 1-.918-.43c-.256-.231-.44-.556-.551-.973-.094-.35-.109-.663-.044-.936.065-.274.19-.513.372-.718.184-.205.407-.382.67-.532.265-.15.55-.283.855-.397.357-.137.644-.252.86-.345.216-.096.365-.192.448-.288a.356.356 0 0 0 .071-.345l-.006-.025c-.07-.26-.207-.44-.41-.539-.2-.1-.45-.109-.748-.029-.316.085-.548.222-.698.412a1 1 0 0 0-.231.618l-1.657.303c-.02-.406.052-.782.219-1.126.165-.348.419-.648.76-.901.343-.257.767-.453 1.272-.588a4.188 4.188 0 0 1 1.041-.147 2.73 2.73 0 0 1 .963.153c.299.105.557.274.776.507.217.23.376.532.477.908l1.143 4.265-1.663.445-.235-.876-.05.013a1.848 1.848 0 0 1-.267.632c-.13.194-.304.365-.52.514a2.625 2.625 0 0 1-.794.345Zm.178-1.345c.258-.069.472-.18.642-.335.17-.157.288-.339.353-.544a1.12 1.12 0 0 0 .009-.643l-.18-.67a.975.975 0 0 1-.2.159 4.253 4.253 0 0 1-.296.163c-.112.054-.224.106-.337.157l-.31.131a2.25 2.25 0 0 0-.5.289.892.892 0 0 0-.286.363.674.674 0 0 0-.017.446c.064.239.199.398.406.478.208.076.447.079.716.006Zm4.711-.093-1.694-6.322 1.753-.47 1.695 6.322-1.754.47Zm-1.032-7.373a.986.986 0 0 1-.74-.08.87.87 0 0 1-.445-.556.852.852 0 0 1 .11-.695.978.978 0 0 1 .6-.443.963.963 0 0 1 .737.084.847.847 0 0 1 .447.547.865.865 0 0 1-.111.705.972.972 0 0 1-.598.438Zm6.547 6.006c-.48.128-.948.121-1.404-.021-.453-.146-.859-.43-1.216-.852-.355-.425-.627-.99-.816-1.696-.194-.725-.24-1.358-.135-1.9.104-.546.318-.99.64-1.333.326-.346.72-.58 1.184-.705.354-.095.665-.113.933-.056.27.054.502.15.695.29.196.136.354.279.477.428l.053-.014-.849-3.17 1.75-.468 2.258 8.43-1.728.463-.272-1.013-.074.02a2.34 2.34 0 0 1-.21.617 1.8 1.8 0 0 1-.466.58c-.206.175-.48.308-.82.4Zm.182-1.545c.283-.075.501-.216.655-.422.155-.21.248-.468.277-.776a2.845 2.845 0 0 0-.103-1.027c-.1-.375-.24-.688-.419-.937a1.456 1.456 0 0 0-.625-.521 1.192 1.192 0 0 0-.78-.034c-.289.078-.51.221-.666.43-.156.21-.247.466-.275.77-.027.305.008.64.106 1.005.099.368.236.68.414.935.179.252.387.431.625.538.24.104.503.117.791.04Z"/></svg>