<svg xmlns="http://www.w3.org/2000/svg" width="48" height="48" fill="none"><path fill="#FDE68A" d="M24.788 3.724 30.076.116a.658.658 0 0 1 .962.258l2.644 5.5a1.397 1.397 0 0 0 1.366.789l6.081-.46c.38-.029.697.287.668.667l-.46 6.082a1.396 1.396 0 0 0 .79 1.366l5.5 2.644c.364.175.484.63.26.962l-3.609 5.288a1.397 1.397 0 0 0 0 1.576l3.608 5.288a.657.657 0 0 1-.26.962l-5.5 2.644a1.397 1.397 0 0 0-.789 1.366l.46 6.081a.621.621 0 0 1-.667.668l-6.082-.46a1.396 1.396 0 0 0-1.366.79l-2.644 5.5a.657.657 0 0 1-.962.26l-5.288-3.609a1.397 1.397 0 0 0-1.576 0l-5.288 3.608a.657.657 0 0 1-.962-.26l-2.644-5.5a1.397 1.397 0 0 0-1.366-.789l-6.082.46a.621.621 0 0 1-.667-.667l.46-6.082a1.397 1.397 0 0 0-.79-1.366l-5.5-2.644a.657.657 0 0 1-.26-.962l3.609-5.288a1.397 1.397 0 0 0 0-1.576L.114 17.924a.657.657 0 0 1 .26-.962l5.5-2.644a1.397 1.397 0 0 0 .789-1.366l-.46-6.082a.621.621 0 0 1 .667-.667l6.082.46a1.397 1.397 0 0 0 1.366-.79l2.644-5.5a.657.657 0 0 1 .962-.26l5.288 3.609a1.397 1.397 0 0 0 1.576 0v.002Z"/><path fill="#CA8A04" d="m9.383 32.176-2.07-7.728 3.048-.817c.586-.157 1.116-.178 1.588-.065.472.11.87.335 1.191.672.324.333.555.757.692 1.27.138.513.149.996.032 1.447a2.37 2.37 0 0 1-.716 1.175c-.359.33-.835.576-1.429.735l-1.943.52-.35-1.309 1.678-.45c.315-.084.56-.208.734-.37.177-.166.29-.36.338-.58a1.48 1.48 0 0 0-.026-.717 1.443 1.443 0 0 0-.335-.63 1.07 1.07 0 0 0-.58-.326c-.236-.053-.512-.037-.829.048l-1.102.295 1.713 6.392-1.634.438Zm8.376-2.127c-.37.099-.717.123-1.04.072a1.648 1.648 0 0 1-.842-.393c-.235-.212-.403-.51-.506-.892-.086-.322-.1-.608-.04-.858.06-.25.174-.47.342-.658.168-.188.372-.35.613-.488.244-.138.505-.26.784-.364.328-.125.59-.23.789-.316.197-.088.334-.176.41-.264a.326.326 0 0 0 .065-.317l-.006-.022c-.064-.24-.189-.404-.375-.494-.183-.091-.412-.1-.686-.026-.29.077-.502.203-.64.377a.917.917 0 0 0-.211.566l-1.52.278a2.091 2.091 0 0 1 .201-1.032c.152-.319.385-.594.697-.826a3.39 3.39 0 0 1 1.166-.539c.322-.086.64-.131.955-.134.317-.005.611.042.882.14.274.096.511.25.711.464.2.21.345.488.438.833l1.047 3.909-1.524.408-.216-.803-.045.012c-.044.206-.126.399-.245.58-.12.177-.278.334-.476.47-.199.135-.441.24-.728.317Zm.163-1.233c.236-.063.433-.166.589-.307.155-.144.263-.31.323-.5.06-.188.063-.384.008-.588l-.165-.615a.886.886 0 0 1-.183.146c-.079.048-.17.098-.271.15-.103.049-.206.097-.31.143l-.283.12a2.06 2.06 0 0 0-.459.265.818.818 0 0 0-.262.333.618.618 0 0 0-.016.41c.058.218.183.364.372.437.191.07.41.072.657.006Zm4.318-.085-1.553-5.796 1.559-.417.27 1.01.06-.015c.01-.388.115-.708.315-.958.199-.253.46-.423.785-.51a2.514 2.514 0 0 1 .52-.079l.383 1.427a2.177 2.177 0 0 0-.33.023 2.905 2.905 0 0 0-.372.072 1.33 1.33 0 0 0-.593.325 1.18 1.18 0 0 0-.324.54c-.058.209-.054.432.009.668l.879 3.28-1.608.43Zm6.168-7.865.324 1.208-3.49.935-.324-1.207 3.49-.936Zm-3.07-.665 1.608-.43 1.447 5.402c.04.149.094.258.161.33a.388.388 0 0 0 .235.118c.091.01.191.002.3-.027.075-.02.149-.047.22-.08l.165-.08.573 1.128c-.073.047-.179.106-.316.178a2.82 2.82 0 0 1-.515.207 2.528 2.528 0 0 1-1.06.118 1.472 1.472 0 0 1-.823-.37c-.228-.206-.391-.5-.49-.88l-1.505-5.614Zm5.67 6.18-1.553-5.795 1.608-.43 1.552 5.795-1.607.43Zm-.946-6.759a.903.903 0 0 1-.678-.073.798.798 0 0 1-.408-.509.781.781 0 0 1 .1-.637.896.896 0 0 1 .55-.407.883.883 0 0 1 .677.078.793.793 0 0 1 .307 1.147.89.89 0 0 1-.548.401Zm5.523 5.65a2.5 2.5 0 0 1-1.04.073 1.648 1.648 0 0 1-.842-.393c-.234-.213-.403-.51-.505-.892-.087-.322-.1-.608-.04-.859.06-.25.173-.47.341-.657.168-.189.372-.351.613-.488.244-.138.505-.26.785-.364.327-.126.59-.231.788-.317.198-.088.335-.176.41-.263a.326.326 0 0 0 .066-.317l-.007-.023c-.064-.239-.189-.403-.375-.494-.183-.09-.412-.1-.686-.026-.29.078-.502.203-.639.378a.917.917 0 0 0-.212.566l-1.519.277a2.091 2.091 0 0 1 .2-1.032c.152-.318.385-.594.697-.826a3.392 3.392 0 0 1 1.166-.538c.322-.087.64-.132.955-.135.317-.004.611.043.883.14.273.096.51.251.71.464.2.211.346.489.438.833l1.047 3.91-1.524.408-.215-.804-.046.012c-.044.206-.126.4-.245.58a1.79 1.79 0 0 1-.476.47c-.199.135-.441.24-.728.317Zm.163-1.232a1.4 1.4 0 0 0 .589-.308c.155-.144.263-.31.323-.499s.063-.385.008-.588l-.164-.615a.891.891 0 0 1-.184.146c-.078.048-.169.098-.271.15l-.31.143-.283.12a2.06 2.06 0 0 0-.459.265.819.819 0 0 0-.262.333.619.619 0 0 0-.016.409c.059.218.183.364.372.438.192.07.41.072.657.006Zm3.855-8.244 2.07 7.728-1.607.43-2.07-7.727 1.607-.43Z"/></svg>