<svg xmlns="http://www.w3.org/2000/svg" width="48" height="48" fill="none"><path fill="#FECACA" d="M24.788 3.724 30.076.116a.658.658 0 0 1 .962.258l2.644 5.5a1.397 1.397 0 0 0 1.366.789l6.081-.46c.38-.029.697.287.668.667l-.46 6.082a1.396 1.396 0 0 0 .79 1.366l5.5 2.644c.364.175.484.63.26.962l-3.609 5.288a1.397 1.397 0 0 0 0 1.576l3.608 5.288a.657.657 0 0 1-.26.962l-5.5 2.644a1.397 1.397 0 0 0-.789 1.366l.46 6.081a.621.621 0 0 1-.667.668l-6.082-.46a1.396 1.396 0 0 0-1.366.79l-2.644 5.5a.657.657 0 0 1-.962.26l-5.288-3.609a1.397 1.397 0 0 0-1.576 0l-5.288 3.608a.657.657 0 0 1-.962-.26l-2.644-5.5a1.397 1.397 0 0 0-1.366-.789l-6.082.46a.621.621 0 0 1-.667-.667l.46-6.082a1.397 1.397 0 0 0-.79-1.366l-5.5-2.644a.657.657 0 0 1-.26-.962l3.609-5.288a1.397 1.397 0 0 0 0-1.576L.114 17.924a.657.657 0 0 1 .26-.962l5.5-2.644a1.397 1.397 0 0 0 .789-1.366l-.46-6.082a.621.621 0 0 1 .667-.667l6.082.46a1.397 1.397 0 0 0 1.366-.79l2.644-5.5a.657.657 0 0 1 .962-.26l5.288 3.609a1.397 1.397 0 0 0 1.576 0v.002Z"/><path fill="#BE123C" d="m17.469 30.08-2.988.8-2.26-8.43 3.014-.807c.848-.227 1.623-.254 2.325-.08.702.17 1.302.526 1.8 1.066.5.54.867 1.247 1.102 2.122.235.879.271 1.678.108 2.398-.16.72-.503 1.33-1.03 1.833-.525.503-1.215.868-2.071 1.098Zm-1.615-1.204 1.132-.303c.526-.142.945-.354 1.254-.637.312-.286.505-.651.58-1.095.078-.447.032-.985-.137-1.613-.166-.623-.395-1.107-.684-1.453a1.848 1.848 0 0 0-1.045-.656c-.41-.09-.878-.064-1.405.077l-1.136.304 1.44 5.376Zm10.36-4.025-.973-3.63 1.753-.47 1.695 6.322-1.684.452-.308-1.149-.066.018c-.043.409-.2.77-.472 1.084-.27.313-.641.533-1.116.66-.422.114-.82.117-1.193.011a2.052 2.052 0 0 1-.972-.617c-.273-.306-.478-.706-.613-1.2l-1.078-4.025 1.753-.47.995 3.713c.103.373.282.64.538.805.255.163.549.201.881.112.211-.057.396-.158.554-.303a1.17 1.17 0 0 0 .328-.555c.064-.223.056-.476-.022-.758Zm6.791 1.198c-.65.174-1.245.193-1.785.055a2.801 2.801 0 0 1-1.38-.839c-.384-.42-.665-.965-.843-1.631-.175-.65-.201-1.255-.08-1.814.12-.559.373-1.037.758-1.434.387-.398.891-.68 1.511-.846a3.415 3.415 0 0 1 1.22-.11c.397.034.766.148 1.106.342.343.194.644.472.903.835.258.36.46.81.604 1.347l.129.482-5.34 1.43-.29-1.087 3.688-.988a1.39 1.39 0 0 0-.345-.627 1.22 1.22 0 0 0-.579-.334 1.35 1.35 0 0 0-.716.01 1.397 1.397 0 0 0-.659.376c-.17.175-.286.38-.346.617-.06.235-.059.477.005.727l.277 1.033c.084.313.214.568.39.765.18.196.392.327.64.393.247.066.517.06.81-.019.196-.052.367-.127.514-.225a1.113 1.113 0 0 0 .505-.832l1.65-.328c.022.412-.055.797-.233 1.156a2.633 2.633 0 0 1-.798.938c-.356.266-.794.468-1.316.608Z"/></svg>